<svg width="16" height="16" viewBox="0 0 16 16" fill="none" xmlns="http://www.w3.org/2000/svg">
<g clip-path="url(#clip0_0_6)">
<path fill-rule="evenodd" clip-rule="evenodd" d="M7.66665 1.83337C4.44499 1.83337 1.83331 4.44505 1.83331 7.66671C1.83331 10.8884 4.44499 13.5 7.66665 13.5C10.8883 13.5 13.5 10.8884 13.5 7.66671C13.5 4.44505 10.8883 1.83337 7.66665 1.83337ZM0.833313 7.66671C0.833313 3.89276 3.8927 0.833374 7.66665 0.833374C11.4406 0.833374 14.5 3.89276 14.5 7.66671C14.5 11.4407 11.4406 14.5 7.66665 14.5C3.8927 14.5 0.833313 11.4407 0.833313 7.66671ZM12.9798 12.9798C13.175 12.7846 13.4916 12.7846 13.6869 12.9798L15.0202 14.3132C15.2155 14.5084 15.2155 14.825 15.0202 15.0203C14.8249 15.2155 14.5084 15.2155 14.3131 15.0203L12.9798 13.6869C12.7845 13.4917 12.7845 13.1751 12.9798 12.9798Z" fill="#474747"/>
</g>
<defs>
<clipPath id="clip0_0_6">
<rect width="16" height="16" fill="white"/>
</clipPath>
</defs>
</svg>
