<svg width="29" height="29" viewBox="0 0 29 29" fill="none" xmlns="http://www.w3.org/2000/svg">
<path d="M17.6718 18.5782L10.4218 11.3282C10.1741 11.0805 10.1741 10.6696 10.4218 10.4219C10.6695 10.1742 11.0804 10.1742 11.3281 10.4219L18.5781 17.6719C18.8258 17.9196 18.8258 18.3305 18.5781 18.5782C18.3304 18.8259 17.9195 18.8259 17.6718 18.5782Z" fill="#C2C2C2"/>
<path d="M10.4218 18.5782C10.1741 18.3305 10.1741 17.9196 10.4218 17.6719L17.6718 10.4219C17.9195 10.1742 18.3303 10.1742 18.578 10.4219C18.8258 10.6696 18.8258 11.0805 18.578 11.3282L11.3281 18.5782C11.0803 18.8259 10.6695 18.8259 10.4218 18.5782Z" fill="#C2C2C2"/>
</svg>
